<?xml version="1.0" standalone="no"?>
<!DOCTYPE svg PUBLIC "-//W3C//DTD SVG 20010904//EN"
 "http://www.w3.org/TR/2001/REC-SVG-20010904/DTD/svg10.dtd">
<svg version="1.0" xmlns="http://www.w3.org/2000/svg"
 width="16.000000pt" height="16.000000pt" viewBox="0 0 16.000000 16.000000"
 preserveAspectRatio="xMidYMid meet">
<metadata>
Created by potrace 1.11, written by Peter Selinger 2001-2013
</metadata>
<g transform="translate(0.000000,16.000000) scale(0.009143,-0.009143)"
fill="#000000" stroke="none">
<path d="M820 1726 c-27 -18 -426 -249 -682 -395 l-28 -15 0 -436 0 -437 338
-195 c185 -108 356 -206 378 -219 l41 -23 154 88 c85 49 249 143 364 209 116
66 217 126 225 133 15 12 17 167 11 769 l-1 111 -97 56 c-501 288 -658 378
-663 377 -3 0 -21 -11 -40 -23z"/>
</g>
</svg>
